<!-- icon666.com - MILLIONS OF FREE VECTOR ICONS --><svg id="Capa_1" enable-background="new 0 0 512 512" viewBox="0 0 512 512" xmlns="http://www.w3.org/2000/svg"><g><g><g><path d="m434.014 88.208c-18.466-24.217-41.771-44.537-68.456-59.559h-67.682l-113.933-16.778c-25.073 8.529-48.15 21.379-68.337 37.669l-32.462 99.656-50.884 74.544c0 30.643 6.167 59.844 17.316 86.438v-.004l85.048 41.461 44.673 82.339-.009.006c23.927 8.733 49.762 13.499 76.71 13.499 52.393 0 100.575-18.014 138.703-48.179l10.792-22.623 32.186-44.2 19.47-145.879z" fill="#62dbfb"></path></g><g><path d="m256 0c-25.219 0-49.462 4.176-72.079 11.868l22.287 44.902c7.702 15.517 27.636 20.174 41.416 9.674 12.211-9.305 29.671-6.845 38.837 5.47l2.345 3.15c6.029 8.101 16.003 12.259 26.001 10.839l14.601-2.074c9.952-1.413 18.346-8.13 21.909-17.528l14.273-37.653c-32.391-18.233-69.772-28.648-109.59-28.648z" fill="#a2e62e"></path></g><g><path d="m405.495 376.678 32.186-44.2 19.47-145.879-23.128-98.359c-15.693-20.583-34.856-38.378-56.643-52.476 22.623 34.964 35.765 76.635 35.765 121.379 0 123.568-100.172 223.74-223.74 223.74-13.983 0-27.666-1.283-40.938-3.739l30.833 56.829-.003.002c23.925 8.733 49.757 13.503 76.705 13.503 52.393 0 100.575-18.014 138.703-48.179z" fill="#01d0fb"></path></g><g><path d="m196.257 407.719-18.061-17.158c-3.212-3.052-5.175-7.189-5.506-11.607l-3.336-44.477c-.229-3.052.331-6.111 1.625-8.884l12.497-26.778c3.096-6.633 1.828-14.484-3.198-19.806l-10.188-10.788c-3.372-3.571-8.067-5.594-12.978-5.594h-22.267c-7.956 0-14.952-5.266-17.154-12.911l-.917-3.185c-3.286-11.412 5.279-22.791 17.154-22.791 5.366 0 10.448-2.414 13.838-6.574l22.827-28.009c2.596-3.185 4.014-7.169 4.014-11.278v-22.179c0-5.809-2.827-11.256-7.578-14.599l-25.181-17.72c-3.265-2.297-5.665-5.623-6.818-9.445l-19.424-64.396c-50.825 41.014-83.346 103.804-83.346 174.2h12.026c5.821 0 11.317 2.687 14.891 7.282l9.347 12.015c3.26 4.19 4.604 9.56 3.702 14.792l-4.566 26.475c-.556 3.226-1.943 6.252-4.023 8.78l-14.061 17.091c24.007 57.26 71.14 102.423 129.721 123.8 10.154 3.705 20.257-1.821 21.751-12.526.717-5.131-1.103-10.225-4.791-13.73z" fill="#a2e62e"></path></g><g><path d="m178.196 390.562c-2.89-2.745-4.756-6.372-5.346-10.289-38.448-2.812-74.195-15.34-104.803-35.14 26.229 40.525 65.198 72.036 111.251 88.841 10.154 3.705 20.257-1.821 21.751-12.526.716-5.131-1.104-10.225-4.793-13.729z" fill="#97d729"></path></g><g><path d="m479.74 223.74c0-50.953-17.044-97.918-45.726-135.532l.438 17.455c.239 9.504-5.04 18.289-13.543 22.541l-17.792 8.896c-4.844 2.422-10.354 3.172-15.67 2.132l-26.977-5.278c-15.14-2.962-29.221 8.63-29.221 24.058v6.82c0 7.798 3.71 15.13 9.992 19.749l31.126 22.887c4.209 3.095 9.297 4.764 14.521 4.764h15.288c11.028 0 20.698 7.364 23.631 17.995l4.437 16.084c1.177 4.266 1.177 8.771 0 13.037l-6.314 22.889c-1.954 7.083-6.982 12.916-13.7 15.893l-15.947 7.066c-7.072 3.134-12.251 9.422-13.97 16.964l-13.542 59.414c-1.214 5.325.12 10.911 3.609 15.113 6.063 7.303 16.873 8.514 24.317 2.626 51.803-40.98 85.043-104.394 85.043-175.573z" fill="#a2e62e"></path></g><g><path d="m434.014 88.208.438 17.455c.239 9.504-5.04 18.289-13.543 22.541l-9.094 4.547c.869 8.013 1.329 16.149 1.329 24.393 0 19.13-2.406 37.698-6.923 55.422 9.287 1.549 17.02 8.352 19.588 17.66l4.437 16.084c1.177 4.266 1.177 8.771 0 13.038l-6.314 22.889c-1.954 7.083-6.982 12.916-13.7 15.893l-15.947 7.066c-7.072 3.134-12.251 9.422-13.97 16.964l-13.542 59.414c-1.214 5.325.12 10.911 3.609 15.113 6.063 7.303 16.872 8.514 24.316 2.626 51.802-40.98 85.042-104.394 85.042-175.573 0-50.953-17.044-97.919-45.726-135.532z" fill="#97d729"></path></g></g><g><path d="m388.163 297.841c-4.143 0-7.5-3.358-7.5-7.5v-68.683c0-4.142 3.357-7.5 7.5-7.5s7.5 3.358 7.5 7.5v68.683c0 4.142-3.357 7.5-7.5 7.5z" fill="#8d9ca8"></path></g><g><path d="m331.968 297.841c-4.143 0-7.5-3.358-7.5-7.5v-68.683c0-4.142 3.357-7.5 7.5-7.5s7.5 3.358 7.5 7.5v68.683c0 4.142-3.358 7.5-7.5 7.5z" fill="#8d9ca8"></path></g><g><g><g><path d="m320.52 512h-14.569c-4.598 0-8.325-3.727-8.325-8.325v-31.954h31.22v31.954c0 4.598-3.728 8.325-8.326 8.325z" fill="#8d9ca8"></path></g><g><path d="m399.61 512h14.569c4.598 0 8.325-3.727 8.325-8.325v-31.954h-31.22v31.954c.001 4.598 3.728 8.325 8.326 8.325z" fill="#8d9ca8"></path></g><g><path d="m422.504 484.943h-124.878c-11.495 0-20.813-9.318-20.813-20.813v-166.504c0-11.495 9.318-20.813 20.813-20.813h124.878c11.495 0 20.813 9.318 20.813 20.813v166.504c0 11.495-9.318 20.813-20.813 20.813z" fill="#fe646f"></path></g><g><path d="m422.504 276.813h-31.22c11.495 0 20.813 9.318 20.813 20.813v166.504c0 11.495-9.318 20.813-20.813 20.813h31.22c11.495 0 20.813-9.318 20.813-20.813v-166.504c0-11.495-9.318-20.813-20.813-20.813z" fill="#fd4755"></path></g><g><path d="m398.569 235.187h-77.008c-4.598 0-8.325-3.727-8.325-8.325v-10.407c0-4.598 3.727-8.325 8.325-8.325h77.008c4.598 0 8.325 3.727 8.325 8.325v10.407c0 4.598-3.727 8.325-8.325 8.325z" fill="#528fd8"></path></g><g><path d="m398.569 208.13h-31.22c4.598 0 8.325 3.727 8.325 8.325v10.407c0 4.598-3.727 8.325-8.325 8.325h31.22c4.598 0 8.325-3.727 8.325-8.325v-10.407c0-4.598-3.727-8.325-8.325-8.325z" fill="#0573ce"></path></g></g></g><g><g><path d="m313.235 461.224c-4.143 0-7.5-3.358-7.5-7.5v-145.691c0-4.142 3.357-7.5 7.5-7.5s7.5 3.358 7.5 7.5v145.691c0 4.142-3.357 7.5-7.5 7.5z" fill="#e41f2d"></path></g><g><path d="m344.455 461.224c-4.143 0-7.5-3.358-7.5-7.5v-145.691c0-4.142 3.357-7.5 7.5-7.5s7.5 3.358 7.5 7.5v145.691c0 4.142-3.357 7.5-7.5 7.5z" fill="#e41f2d"></path></g><g><path d="m375.675 461.224c-4.143 0-7.5-3.358-7.5-7.5v-145.691c0-4.142 3.357-7.5 7.5-7.5s7.5 3.358 7.5 7.5v145.691c0 4.142-3.358 7.5-7.5 7.5z" fill="#e41f2d"></path></g><g><path d="m406.895 461.224c-4.143 0-7.5-3.358-7.5-7.5v-145.691c0-4.142 3.357-7.5 7.5-7.5s7.5 3.358 7.5 7.5v145.691c0 4.142-3.358 7.5-7.5 7.5z" fill="#e41f2d"></path></g></g><g><g><path d="m200.846 377.167c-4.143 0-7.5-3.358-7.5-7.5v-38.22c0-4.142 3.357-7.5 7.5-7.5s7.5 3.358 7.5 7.5v38.22c0 4.143-3.358 7.5-7.5 7.5z" fill="#ac5e2e"></path></g><g><path d="m144.65 377.167c-4.143 0-7.5-3.358-7.5-7.5v-38.22c0-4.142 3.357-7.5 7.5-7.5s7.5 3.358 7.5 7.5v38.22c0 4.143-3.357 7.5-7.5 7.5z" fill="#ac5e2e"></path></g></g><g><path d="m209.171 335.948h-72.846c-4.143 0-7.5-3.358-7.5-7.5s3.357-7.5 7.5-7.5h72.846c4.143 0 7.5 3.358 7.5 7.5s-3.358 7.5-7.5 7.5z" fill="#c86d36"></path></g><g><g><path d="m256 359.667h-12.488l-13.528 14.634-13.528-14.634h-87.415l-12.309 10-14.748-10h-12.488c-11.495 0-20.813 9.318-20.813 20.813v110.706c0 11.495 9.318 20.813 20.813 20.813h12.488l13.528-14.375 13.529 14.376h87.415l15.613-14.375 11.443 14.375h12.488c11.495 0 20.813-9.318 20.813-20.813v-110.707c0-11.494-9.318-20.813-20.813-20.813z" fill="#ffe177"></path></g><g><path d="m256 359.667h-12.488l-4.896 5.296c4.272 3.812 6.977 9.342 6.977 15.518v110.706c0 5.984-2.54 11.362-6.582 15.159l4.501 5.654h12.488c11.495 0 20.813-9.318 20.813-20.813v-110.707c0-11.494-9.318-20.813-20.813-20.813z" fill="#ffc344"></path></g><g><path d="m216.455 359.667h27.057v152.333h-27.057z" fill="#ea9b58"></path></g><g><path d="m101.984 359.667h27.057v152.333h-27.057z" fill="#ea9b58"></path></g></g></g></svg>